:SAMPLES-PER-SECOND 30
:FRAME-RANGE 1-1390
:FULLY-SPECIFIED
:DEGREES
1217
root  21.5758 33.1523 -66.9132 -42.3186 61.3464 -22.8438
RightUpLeg  -0.306929 -20.5785 22.0872
RightLeg  54.4687 -10.7678 -16.1069
RightFoot  -36.6624 -1.97541 -7.66588
RightToes  -2.9104e-010 0 -3.6325e-017
Spine  15.5396 5.44965 3.37923
Spine1  -3.18369 -6.41859 8.12299
HEad  -9.55646 -43.84 11.9878
LeftShoulder1  3.20178 -4.95142 -31.864
LeftArm  77.0833 -36.3416 -85.1039
LeftForeArm  -0.310443 -15.1904 -13.7353
LeftHand  -0.04064 4.04311 1.73706
RightShoulder  13.9123 21.7101 48.1924
RightArm  32.3561 11.7998 20.9694
RightForeArm  25.2418 26.355 4.31023
RightHand  1.37843 7.42581 12.0376
LeftUpLeg  -103.005 29.3227 -60.143
LeftLeg  145.216 -12.6376 7.68069
LeftFoot  -5.86595 0.500981 -9.72596
LeftToes  5.45371e-012 -1.3743e-010 1.09575e-010
1218
root  21.588 33.4963 -66.5754 -39.4116 60.9007 -19.8507
RightUpLeg  0.966494 -19.0859 21.7328
RightLeg  52.4514 -11.459 -15.8702
RightFoot  -35.7255 -1.99283 -8.07968
RightToes  -2.9104e-010 0 -3.6325e-017
Spine  14.3202 5.57441 1.24364
Spine1  -2.88682 -6.57808 8.07449
HEad  -9.31341 -44.3413 12.0343
LeftShoulder1  3.20085 -5.0139 -31.5743
LeftArm  77.2041 -35.7485 -84.438
LeftForeArm  -1.78951 -15.4133 -13.619
LeftHand  -0.0353884 3.99458 1.22354
RightShoulder  14.1697 22.2001 48.1373
RightArm  32.2004 10.8325 21.3423
RightForeArm  28.848 27.2114 4.3051
RightHand  1.32532 7.0536 11.9274
LeftUpLeg  -104.044 28.9226 -63.5386
LeftLeg  145.677 -8.38119 4.91995
LeftFoot  -7.42516 0.503241 -13.3735
LeftToes  5.45371e-012 -1.3743e-010 1.09575e-010
1219
root  21.3726 34.4306 -66.5873 -36.0347 61.2586 -16.9822
RightUpLeg  2.34558 -17.9933 20.2108
RightLeg  47.2215 -12.1202 -13.9738
RightFoot  -32.471 -1.77191 -8.29914
RightToes  -2.9104e-010 0 -3.6325e-017
Spine  13.5792 4.95645 -0.956774
Spine1  -2.74267 -6.8012 8.13117
HEad  -10.5613 -44.3092 13.2354
LeftShoulder1  3.21063 -4.99285 -31.7834
LeftArm  77.9256 -34.5927 -83.2204
LeftForeArm  -2.62485 -15.8179 -13.3011
LeftHand  -0.0330918 3.98671 1.01511
RightShoulder  13.9141 21.7686 48.084
RightArm  33.9286 10.2525 21.9005
RightForeArm  28.7883 27.7116 4.41834
RightHand  1.33603 6.89032 12.1939
LeftUpLeg  -103.401 27.4057 -65.2674
LeftLeg  144.99 -5.54447 3.23573
LeftFoot  -7.28591 0.628411 -16.4262
LeftToes  5.45371e-012 -1.3743e-010 1.09575e-010
1220
root  20.9346 35.7687 -67.0275 -30.7939 61.7472 -13.0718
RightUpLeg  2.91282 -15.8806 18.0865
RightLeg  39.9663 -12.8689 -11.5835
RightFoot  -26.9316 -1.42141 -9.02833
RightToes  -2.9104e-010 0 -3.6325e-017
Spine  13.451 3.89003 -2.73433
Spine1  -3.23444 -6.63935 7.98775
HEad  -11.4411 -44.2808 14.2558
LeftShoulder1  3.2139 -4.99033 -31.8333
LeftArm  76.4165 -33.3392 -82.4768
LeftForeArm  -1.84564 -15.6219 -13.4367
LeftHand  -0.0189271 3.53186 -0.0196298
RightShoulder  13.4949 20.9484 48.2175
RightArm  35.4712 8.86843 22.4439
RightForeArm  27.7585 27.7582 4.48383
RightHand  1.34378 6.78172 12.3809
LeftUpLeg  -101.512 25.6607 -65.6112
LeftLeg  142.904 -5.26566 3.32774
LeftFoot  -4.62625 1.14742 -18.9378
LeftToes  5.45371e-012 -1.3743e-010 1.09575e-010
1221
root  20.4053 37.3302 -67.7908 -23.6238 61.9079 -7.6123
RightUpLeg  3.23422 -12.5737 14.9106
RightLeg  31.3522 -12.269 -8.19446
RightFoot  -19.4442 -0.709127 -8.14146
RightToes  -2.9104e-010 0 -3.6325e-017
Spine  13.75 2.62729 -4.48125
Spine1  -3.71225 -6.50402 7.84596
HEad  -12.1963 -43.9592 14.8303
LeftShoulder1  3.20176 -5.02934 -31.5168
LeftArm  76.3536 -32.3353 -82.4873
LeftForeArm  -1.5303 -15.7031 -13.3467
LeftHand  -0.00722593 3.45297 -0.728446
RightShoulder  13.0226 20.1589 48.0948
RightArm  36.6613 7.57544 23.2971
RightForeArm  25.6401 26.9337 4.41544
RightHand  1.40335 6.92609 12.7816
LeftUpLeg  -99.3864 23.3961 -66.4674
LeftLeg  139.545 -7.84264 5.81647
LeftFoot  1.14514 2.1815 -19.8322
LeftToes  5.45371e-012 -1.3743e-010 1.09575e-010
1222
root  19.8745 38.8291 -68.7198 -17.1334 61.0165 -2.81384
RightUpLeg  3.02161 -8.40604 11.4084
RightLeg  23.6062 -6.88498 -3.46382
RightFoot  -9.62548 0.0424255 -7.15453
RightToes  -2.9104e-010 0 -3.6325e-017
Spine  14.9323 1.50979 -5.12211
Spine1  -4.37684 -6.30897 7.8587
HEad  -13.9121 -43.1845 15.4329
LeftShoulder1  3.21106 -5.07244 -31.4364
LeftArm  77.7516 -31.6363 -82.8414
LeftForeArm  -2.2891 -16.1247 -12.9991
LeftHand  0.00399145 3.26575 -1.24237
RightShoulder  12.4914 19.4886 47.4779
RightArm  37.7141 6.71402 23.9696
RightForeArm  23.9322 26.2614 4.35985
RightHand  1.46939 7.20507 13.0843
LeftUpLeg  -97.1096 21.2468 -67.0552
LeftLeg  135.661 -10.096 8.69861
LeftFoot  6.72079 3.21391 -20.2941
LeftToes  5.45371e-012 -1.3743e-010 1.09575e-010
1223
root  19.381 39.9223 -69.6181 -12.4595 58.5761 0.234497
RightUpLeg  1.9715 -5.8474 8.20168
RightLeg  18.572 0.590255 0.108804
RightFoot  -1.135 0.267205 -3.07571
RightToes  -2.9104e-010 0 -3.6325e-017
Spine  16.2848 0.890485 -4.71764
Spine1  -4.48267 -5.89827 7.70824
HEad  -16.713 -41.7128 16.8169
LeftShoulder1  3.19343 -5.14042 -30.9344
LeftArm  79.9593 -31.4863 -84.0345
LeftForeArm  -3.59113 -16.6161 -12.599
LeftHand  0.00713509 3.25249 -1.4488
RightShoulder  12.5038 19.8011 46.8676
RightArm  37.4753 6.0395 23.8031
RightForeArm  22.898 26.1905 4.39979
RightHand  1.52699 7.40288 13.3869
LeftUpLeg  -95.7826 19.2804 -67.6853
LeftLeg  132.224 -11.0057 10.7093
LeftFoot  9.86662 3.69184 -19.8708
LeftToes  5.45371e-012 -1.3743e-010 1.09575e-010
1224
root  18.9731 40.4948 -70.3269 -9.29553 55.6161 2.09583
RightUpLeg  0.416188 -5.74854 5.62355
RightLeg  17.2557 -0.952273 -0.35692
RightFoot  0.638755 -0.653661 6.26435
RightToes  -2.9104e-010 0 -3.6325e-017
Spine  17.5019 0.341417 -4.51828
Spine1  -4.08887 -5.72962 7.4602
HEad  -18.6995 -39.8606 18.831
LeftShoulder1  3.11819 -5.18746 -29.8551
LeftArm  82.6643 -31.5176 -85.096
LeftForeArm  -5.69053 -17.1814 -12.1502
LeftHand  0.00582449 3.28849 -1.20539
RightShoulder  12.7787 20.3038 46.8779
RightArm  38.0432 6.1157 23.1296
RightForeArm  21.8358 26.9955 4.63428
RightHand  1.4949 7.18395 13.3388
LeftUpLeg  -95.2937 18.058 -68.1903
LeftLeg  129.662 -10.738 11.4235
LeftFoot  11.3056 4.01472 -20.2152
LeftToes  5.45371e-012 -1.3743e-010 1.09575e-010
1225
root  18.5981 40.7204 -70.8408 -7.48865 52.7114 2.91425
RightUpLeg  -1.98182 -10.3862 3.99453
RightLeg  21.1117 -8.81309 -3.67554
RightFoot  -1.48159 -0.428887 4.85122
RightToes  -2.9104e-010 0 -3.6325e-017
Spine  18.6102 -0.15676 -4.48503
Spine1  -3.6671 -5.77089 7.25128
HEad  -19.119 -39.1298 20.363
LeftShoulder1  3.07485 -5.12318 -29.6156
LeftArm  83.6366 -31.8542 -85.1079
LeftForeArm  -6.91605 -17.3666 -12.0296
LeftHand  0.00364124 3.25334 -1.21102
RightShoulder  13.0829 20.552 47.5099
RightArm  37.8017 6.86639 22.933
RightForeArm  21.697 26.0335 4.42999
RightHand  1.50719 7.69075 12.9067
LeftUpLeg  -94.6816 18.0415 -68.3842
LeftLeg  127.732 -9.68892 11.0261
LeftFoot  11.2558 3.87277 -19.5668
LeftToes  5.45371e-012 -1.3743e-010 1.09575e-010
1226
root  18.2949 40.5032 -71.2288 -6.64679 50.083 2.82104
RightUpLeg  -4.08599 -14.7879 3.48126
RightLeg  26.394 -13.1379 -7.22059
RightFoot  -3.79034 -0.291863 4.02896
RightToes  -2.9104e-010 0 -3.6325e-017
Spine  19.2346 -0.653686 -4.34085
Spine1  -3.14229 -5.93215 7.25956
HEad  -18.3231 -39.9877 20.6468
LeftShoulder1  3.09991 -5.05914 -30.1836
LeftArm  80.7569 -32.4444 -84.8827
LeftForeArm  -4.08908 -16.5597 -12.6817
LeftHand  -0.00351765 3.25563 -0.806562
RightShoulder  13.1842 20.572 47.8445
RightArm  37.9415 7.542 22.6455
RightForeArm  21.4586 25.3797 4.30086
RightHand  1.45509 7.79354 12.3499
LeftUpLeg  -93.7465 18.8018 -68.5301
LeftLeg  126.175 -8.47803 10.1824
LeftFoot  10.8601 3.52929 -18.1977
LeftToes  5.45371e-012 -1.3743e-010 1.09575e-010
1227
root  18.0529 39.8223 -71.4759 -6.45648 47.7815 2.2876
RightUpLeg  -5.65267 -14.6791 4.06146
RightLeg  32.5298 -15.9015 -10.8959
RightFoot  -6.5192 -0.225866 4.30828
RightToes  -2.9104e-010 0 -3.6325e-017
Spine  19.4448 -0.878051 -4.93861
Spine1  -2.24871 -6.16577 8.416
HEad  -17.2715 -41.8755 20.1117
LeftShoulder1  3.16142 -5.12253 -30.6367
LeftArm  78.1219 -33.0006 -85.4011
LeftForeArm  -0.657199 -15.7728 -13.2373
LeftHand  -0.0124178 3.39713 -0.370996
RightShoulder  12.8892 20.3638 47.1713
RightArm  38.1253 7.98433 22.7295
RightForeArm  21.3668 25.0627 4.23753
RightHand  1.44317 7.94291 12.1027
LeftUpLeg  -92.6042 20.1105 -68.9681
LeftLeg  125.305 -7.58701 9.38032
LeftFoot  10.5217 3.17246 -16.6617
LeftToes  5.45371e-012 -1.3743e-010 1.09575e-010
1228
root  17.8381 38.6732 -71.4862 -7.47253 45.7311 0.765442
RightUpLeg  -5.13969 -9.27765 6.20854
RightLeg  34.17 -14.3114 -10.4734
RightFoot  -15.6826 0.137967 6.44209
RightToes  -2.9104e-010 0 -3.6325e-017
Spine  19.4728 -1.28319 -5.26022
Spine1  -1.27578 -6.60088 9.0361
HEad  -16.8767 -44.3177 20.503
LeftShoulder1  3.17117 -5.20202 -30.4118
LeftArm  77.0704 -33.1325 -85.6161
LeftForeArm  0.744966 -15.4618 -13.4434
LeftHand  -0.0183534 3.49652 -0.0438278
RightShoulder  12.8985 20.236 47.4687
RightArm  38.0008 7.87994 22.3015
RightForeArm  21.2634 25.4148 4.31887
RightHand  1.42361 7.7543 12.1148
LeftUpLeg  -91.551 22.0259 -69.1294
LeftLeg  125.631 -7.08633 8.63948
LeftFoot  10.9631 2.7244 -14.1034
LeftToes  5.45371e-012 -1.3743e-010 1.09575e-010
